# xmcd
#
# Track frame offsets: 
#        150
#        14324
#        23750
#        36337
#        49751
#        61463
#        75683
#        82613
#        87785
#        99165
#        108715
#        116291
#        136765
#        148328
#        156291
#        167168
#        178998
#        191137
#        203224
#        215833
#        228733
#        243242
#        245400
#        253993
#        270873
#        274568
#        283700
#        298354
#        314339
#        325928
#
# Disc length: 4381 seconds
#
# Revision: 0
# Processed by: cddbd v1.5.1PL0 Copyright (c) Steve Scherf et al.
# Submitted via: ExactAudioCopy v0.95b2
#
DISCID=ba111b1e
DTITLE=Alexandru Andries - Interioare - Rock'n'Roll
DYEAR=2004
DGENRE=Blues
TTITLE0=Ea va veni
TTITLE1=Ochi de ciocolata
TTITLE2=Porcul
TTITLE3=Ce albastri sint
TTITLE4=Lenea de dupa amiaza
TTITLE5=Am doua umbrele
TTITLE6=Unde te duci, frumoasa fata?
TTITLE7=Poveste mica
TTITLE8=Ochii tai
TTITLE9=Fluture de perdea
TTITLE10=Regina noptii
TTITLE11=Nu-l dau pe azi pentru miine
TTITLE12=Fara griji
TTITLE13=Azi ninge tare, draga mea
TTITLE14=Asta-i usa
TTITLE15=Rock'n'Roll bolnav
TTITLE16=Lung, lung, lung
TTITLE17=Dimineata devreme
TTITLE18=De ce imi place de ea
TTITLE19=De vina-i Ioana
TTITLE20=La cinema
TTITLE21=Fara tine, nu #1
TTITLE22=Fara tine, nu #2
TTITLE23=E altcineva
TTITLE24=Asa am crezut si noi
TTITLE25=Cintec de drum
TTITLE26=Blues
TTITLE27=Duminica dimineata, spre prinz
TTITLE28=Rock'n'Roll sanatos
TTITLE29=Daca insa vei veni
EXTD=
EXTT0=
EXTT1=
EXTT2=
EXTT3=
EXTT4=
EXTT5=
EXTT6=
EXTT7=
EXTT8=
EXTT9=
EXTT10=
EXTT11=
EXTT12=
EXTT13=
EXTT14=
EXTT15=
EXTT16=
EXTT17=
EXTT18=
EXTT19=
EXTT20=
EXTT21=
EXTT22=
EXTT23=
EXTT24=
EXTT25=
EXTT26=
EXTT27=
EXTT28=
EXTT29=
PLAYORDER=
